<?xml version="1.0" standalone="no"?><!DOCTYPE svg PUBLIC "-//W3C//DTD SVG 1.1//EN" "http://www.w3.org/Graphics/SVG/1.1/DTD/svg11.dtd"><svg t="1686242343534" class="icon" viewBox="0 0 1024 1024" version="1.1" xmlns="http://www.w3.org/2000/svg" p-id="1821" xmlns:xlink="http://www.w3.org/1999/xlink" width="200" height="200"><path d="M512 618.666667c-58.88 0-106.666667-47.786667-106.666667-106.666667s47.786667-106.666667 106.666667-106.666667 106.666667 47.786667 106.666667 106.666667-47.786667 106.666667-106.666667 106.666667z m0-170.666667c-35.2 0-64 28.8-64 64s28.8 64 64 64 64-28.8 64-64-28.8-64-64-64z" fill="#DB8319" p-id="1822"></path><path d="M440.533333 861.44c-1.493333 0-2.986667-0.213333-4.48-0.426667-66.986667-14.506667-128.213333-47.786667-177.066666-96.213333a21.056 21.056 0 0 1-5.546667-20.906667c1.92-6.613333 6.826667-11.946667 13.226667-14.293333 28.373333-18.133333 37.333333-53.973333 21.12-82.133333-8.106667-14.08-21.12-24.106667-36.906667-28.373334-15.573333-4.266667-32-2.133333-46.08 5.973334-1.28 1.066667-2.56 2.133333-4.053333 2.986666-5.546667 3.413333-12.586667 4.053333-18.773334 1.92a21.269333 21.269333 0 0 1-12.8-13.866666c-10.453333-34.56-15.786667-70.186667-15.786666-106.026667 0-32.213333 4.48-64.853333 13.653333-97.066667 1.706667-6.186667 5.973333-11.093333 11.733333-13.653333s12.373333-2.56 18.133334 0.213333c1.28 0.64 3.413333 1.92 4.48 2.773334 12.373333 7.04 28.8 9.173333 44.373333 4.906666 15.573333-4.266667 28.8-14.293333 36.906667-28.373333 16.64-29.013333 6.826667-66.133333-22.186667-82.773333 0.64 0.426667-0.213333 0-1.28-0.426667-5.973333-2.986667-10.24-8.746667-11.52-15.36-1.066667-6.613333 0.853333-13.44 5.546667-18.346667a358.613333 358.613333 0 0 1 171.946666-99.626666c6.186667-1.493333 12.8-0.213333 17.92 3.626666 5.12 3.84 8.32 9.813333 8.533334 16.213334 1.28 32.853333 27.733333 58.453333 60.373333 58.453333s59.093333-25.6 60.373333-58.453333c0.213333-6.4 3.413333-12.373333 8.533334-16.213334 5.12-3.84 11.733333-5.12 17.92-3.626666 64 16 122.24 49.28 168.533333 96 4.48 4.48 6.613333 10.666667 6.186667 16.853333s-3.84 11.946667-8.96 15.573333a59.776 59.776 0 0 0-17.706667 79.36 60.736 60.736 0 0 0 78.933333 23.893334c5.546667-2.773333 12.16-2.986667 17.92-0.426667 5.76 2.56 10.026667 7.466667 11.946667 13.44 10.026667 33.706667 15.146667 68.48 15.146667 103.253333 0 28.586667-4.053333 58.666667-11.733334 89.386667-1.493333 6.186667-5.76 11.306667-11.52 14.08s-12.373333 2.773333-18.133333 0.213333c-28.586667-13.013333-61.866667-2.56-77.44 24.533334-16.213333 28.16-7.253333 64 20.053333 81.28 5.333333 3.413333 8.96 8.96 9.813334 15.146666s-1.066667 12.586667-5.333334 17.28a356.245333 356.245333 0 0 1-166.613333 103.253334 21.248 21.248 0 0 1-27.093333-19.626667 60.053333 60.053333 0 0 0-60.373334-58.453333c-33.493333 0-60.586667 27.093333-60.586666 60.586666 0 0 0.213333 1.28 0.213333 2.56 0 6.4-2.986667 12.586667-7.893333 16.64-4.053333 2.56-8.746667 4.266667-13.653334 4.266667z m-133.12-109.866667c33.493333 28.373333 72.32 49.493333 114.346667 61.866667a103.637333 103.637333 0 0 1 100.48-79.146667c46.506667 0 85.546667 30.293333 98.56 72.533334 40.32-14.72 77.226667-37.76 108.373333-67.626667a103.104 103.104 0 0 1-14.293333-122.026667 102.506667 102.506667 0 0 1 107.306667-49.706666c3.626667-19.626667 5.546667-38.613333 5.546666-56.96 0-23.253333-2.56-46.72-7.893333-69.546667-42.453333 8.96-87.893333-10.026667-110.506667-49.28-22.4-38.826667-17.066667-85.973333 11.093334-118.4-32-28.16-69.546667-49.493333-110.293334-62.933333-12.8 42.666667-52.053333 73.173333-98.56 73.173333a102.613333 102.613333 0 0 1-98.56-73.173333c-41.173333 13.44-78.933333 35.2-111.573333 64.213333a103.616 103.616 0 0 1 17.706667 126.08 103.296 103.296 0 0 1-117.12 48c-4.266667 20.693333-6.186667 41.386667-6.186667 61.653333 0 23.253333 2.56 46.293333 7.68 69.12 18.986667-6.186667 39.04-6.613333 58.453333-1.493333 26.666667 7.04 48.853333 24.32 62.72 48.213333 23.893333 41.6 15.573333 93.226667-17.28 125.44z m-41.6-21.333333z" fill="#333333" p-id="1823"></path></svg>